<?xml version="1.0" encoding="utf-8"?>
<!-- Generator: Adobe Illustrator 27.0.0, SVG Export Plug-In . SVG Version: 6.00 Build 0)  -->
<svg version="1.1" id="Capa_1" xmlns="http://www.w3.org/2000/svg" xmlns:xlink="http://www.w3.org/1999/xlink" x="0px" y="0px"
	 viewBox="0 0 1366 768" style="enable-background:new 0 0 1366 768;" xml:space="preserve">
<style type="text/css">
	.st0{fill:#ECECEC;}
	.st1{fill:#C8C8C8;}
	.st2{fill:#FFFFFF;}
	.st3{fill:#DCDCDC;}
	.st4{fill:#A8A8A8;}
	.st5{fill:#9EB23B;}
	.st6{fill:#668F3B;}
	.st7{fill:#1A2E35;}
	.st8{fill:#E0DECA;}
	.st9{fill:#C7D36F;}
	.st10{fill:#2B454E;}
	.st11{fill:#375A64;}
	.st12{opacity:0.1;fill:#FFC884;}
	.st13{fill:#FFC884;}
</style>
<path class="st0" d="M126.67-454h-286.93c0,0,39.29-87.72,81.33-93.21c42.03-5.48,62.14,65.18,62.14,65.18S10.31-507,31.63-507
	c21.32,0,37.77,32.9,37.77,32.9S112.05-496.64,126.67-454z"/>
<path class="st0" d="M185.53-621H-8.3c0,0,33.29-63.56,69.41-64.48c36.12-0.93,55.11,48.1,55.11,48.1S172.41-682.47,185.53-621z"/>
<path class="st0" d="M113.62-220.75H-17.21c0,0,22.47-42.9,46.85-43.52c24.38-0.62,37.19,32.47,37.19,32.47
	S104.76-262.25,113.62-220.75z"/>
<g>
	<g>
		<g>
			<rect x="-101.57" y="-168.7" class="st0" width="166.46" height="854.7"/>
			<rect x="-105.57" y="-185.72" class="st1" width="170.46" height="17.02"/>
			<g>
				<rect x="-86.52" y="-143.61" class="st2" width="16.87" height="829.61"/>
				<rect x="-56.64" y="-143.61" class="st2" width="16.87" height="829.61"/>
				<rect x="-26.77" y="-143.61" class="st2" width="16.86" height="829.61"/>
				<rect x="3.11" y="-143.61" class="st2" width="16.86" height="829.61"/>
				<rect x="32.98" y="-143.61" class="st2" width="16.87" height="829.61"/>
				<g>
					<rect x="-86.52" y="-122.11" class="st0" width="16.87" height="33.6"/>
					<rect x="-56.64" y="-122.11" class="st0" width="16.87" height="33.6"/>
					<rect x="-26.77" y="-122.11" class="st0" width="16.86" height="33.6"/>
					<rect x="3.11" y="-122.11" class="st0" width="16.86" height="33.6"/>
					<rect x="32.98" y="-122.11" class="st0" width="16.87" height="33.6"/>
				</g>
				<g>
					<rect x="-86.52" y="-67.5" class="st0" width="16.87" height="33.6"/>
					<rect x="-56.64" y="-67.5" class="st0" width="16.87" height="33.6"/>
					<rect x="-26.77" y="-67.5" class="st0" width="16.86" height="33.6"/>
					<rect x="3.11" y="-67.5" class="st0" width="16.86" height="33.6"/>
					<rect x="32.98" y="-67.5" class="st0" width="16.87" height="33.6"/>
				</g>
				<g>
					<rect x="-86.52" y="-12.9" class="st0" width="16.87" height="33.6"/>
					<rect x="-56.64" y="-12.9" class="st0" width="16.87" height="33.6"/>
					<rect x="-26.77" y="-12.9" class="st0" width="16.86" height="33.6"/>
					<rect x="3.11" y="-12.9" class="st0" width="16.86" height="33.6"/>
					<rect x="32.98" y="-12.9" class="st0" width="16.87" height="33.6"/>
				</g>
				<g>
					<rect x="-86.52" y="41.7" class="st0" width="16.87" height="33.6"/>
					<rect x="-56.64" y="41.7" class="st0" width="16.87" height="33.6"/>
					<rect x="-26.77" y="41.7" class="st0" width="16.86" height="33.6"/>
					<rect x="3.11" y="41.7" class="st0" width="16.86" height="33.6"/>
					<rect x="32.98" y="41.7" class="st0" width="16.87" height="33.6"/>
				</g>
				<g>
					<rect x="-86.52" y="96.31" class="st0" width="16.87" height="33.6"/>
					<rect x="-56.64" y="96.31" class="st0" width="16.87" height="33.6"/>
					<rect x="-26.77" y="96.31" class="st0" width="16.86" height="33.6"/>
					<rect x="3.11" y="96.31" class="st0" width="16.86" height="33.6"/>
					<rect x="32.98" y="96.31" class="st0" width="16.87" height="33.6"/>
				</g>
				<g>
					<rect x="-86.52" y="150.91" class="st0" width="16.87" height="33.6"/>
					<rect x="-56.64" y="150.91" class="st0" width="16.87" height="33.6"/>
					<rect x="-26.77" y="150.91" class="st0" width="16.86" height="33.6"/>
					<rect x="3.11" y="150.91" class="st0" width="16.86" height="33.6"/>
					<rect x="32.98" y="150.91" class="st0" width="16.87" height="33.6"/>
				</g>
				<g>
					<rect x="-86.52" y="205.51" class="st0" width="16.87" height="33.6"/>
					<rect x="-56.64" y="205.51" class="st0" width="16.87" height="33.6"/>
					<rect x="-26.77" y="205.51" class="st0" width="16.86" height="33.6"/>
					<rect x="3.11" y="205.51" class="st0" width="16.86" height="33.6"/>
					<rect x="32.98" y="205.51" class="st0" width="16.87" height="33.6"/>
				</g>
				<g>
					<rect x="-86.52" y="260.11" class="st0" width="16.87" height="33.6"/>
					<rect x="-56.64" y="260.11" class="st0" width="16.87" height="33.6"/>
					<rect x="-26.77" y="260.11" class="st0" width="16.86" height="33.6"/>
					<rect x="3.11" y="260.11" class="st0" width="16.86" height="33.6"/>
					<rect x="32.98" y="260.11" class="st0" width="16.87" height="33.6"/>
				</g>
				<g>
					<rect x="-86.52" y="314.72" class="st0" width="16.87" height="33.6"/>
					<rect x="-56.64" y="314.72" class="st0" width="16.87" height="33.6"/>
					<rect x="-26.77" y="314.72" class="st0" width="16.86" height="33.6"/>
					<rect x="3.11" y="314.72" class="st0" width="16.86" height="33.6"/>
					<rect x="32.98" y="314.72" class="st0" width="16.87" height="33.6"/>
				</g>
				<g>
					<rect x="-86.52" y="369.32" class="st0" width="16.87" height="33.6"/>
					<rect x="-56.64" y="369.32" class="st0" width="16.87" height="33.6"/>
					<rect x="-26.77" y="369.32" class="st0" width="16.86" height="33.6"/>
					<rect x="3.11" y="369.32" class="st0" width="16.86" height="33.6"/>
					<rect x="32.98" y="369.32" class="st0" width="16.87" height="33.6"/>
				</g>
				<g>
					<rect x="-86.52" y="423.92" class="st0" width="16.87" height="33.6"/>
					<rect x="-56.64" y="423.92" class="st0" width="16.87" height="33.6"/>
					<rect x="-26.77" y="423.92" class="st0" width="16.86" height="33.6"/>
					<rect x="3.11" y="423.92" class="st0" width="16.86" height="33.6"/>
					<rect x="32.98" y="423.92" class="st0" width="16.87" height="33.6"/>
				</g>
				<g>
					<rect x="-86.52" y="478.53" class="st0" width="16.87" height="33.6"/>
					<rect x="-56.64" y="478.53" class="st0" width="16.87" height="33.6"/>
					<rect x="-26.77" y="478.53" class="st0" width="16.86" height="33.6"/>
					<rect x="3.11" y="478.53" class="st0" width="16.86" height="33.6"/>
					<rect x="32.98" y="478.53" class="st0" width="16.87" height="33.6"/>
				</g>
				<g>
					<rect x="-86.52" y="533.13" class="st0" width="16.87" height="33.6"/>
					<rect x="-56.64" y="533.13" class="st0" width="16.87" height="33.6"/>
					<rect x="-26.77" y="533.13" class="st0" width="16.86" height="33.6"/>
					<rect x="3.11" y="533.13" class="st0" width="16.86" height="33.6"/>
					<rect x="32.98" y="533.13" class="st0" width="16.87" height="33.6"/>
				</g>
				<g>
					<rect x="-86.52" y="587.73" class="st0" width="16.87" height="98.27"/>
					<rect x="-56.64" y="587.73" class="st0" width="16.87" height="98.27"/>
					<rect x="-26.77" y="587.73" class="st0" width="16.86" height="98.27"/>
					<rect x="3.11" y="587.73" class="st0" width="16.86" height="98.27"/>
					<rect x="32.98" y="587.73" class="st0" width="16.87" height="98.27"/>
				</g>
			</g>
		</g>
	</g>
	<g>
		<g>
			<rect x="64.89" y="-168.7" class="st3" width="106.87" height="854.7"/>
			<rect x="64.89" y="-185.72" class="st1" width="111.49" height="17.02"/>
			<g>
				<rect x="79.95" y="-143.61" class="st1" width="16.87" height="829.61"/>
				<rect x="109.82" y="-143.61" class="st1" width="16.87" height="829.61"/>
				<rect x="139.69" y="-143.61" class="st1" width="16.87" height="829.61"/>
				<g>
					<rect x="79.95" y="-122.11" class="st3" width="16.87" height="33.6"/>
					<rect x="109.82" y="-122.11" class="st3" width="16.87" height="33.6"/>
					<rect x="139.69" y="-122.11" class="st3" width="16.87" height="33.6"/>
				</g>
				<g>
					<rect x="79.95" y="-67.5" class="st3" width="16.87" height="33.6"/>
					<rect x="109.82" y="-67.5" class="st3" width="16.87" height="33.6"/>
					<rect x="139.69" y="-67.5" class="st3" width="16.87" height="33.6"/>
				</g>
				<g>
					<rect x="79.95" y="-12.9" class="st3" width="16.87" height="33.6"/>
					<rect x="109.82" y="-12.9" class="st3" width="16.87" height="33.6"/>
					<rect x="139.69" y="-12.9" class="st3" width="16.87" height="33.6"/>
				</g>
				<g>
					<rect x="79.95" y="41.7" class="st3" width="16.87" height="33.6"/>
					<rect x="109.82" y="41.7" class="st3" width="16.87" height="33.6"/>
					<rect x="139.69" y="41.7" class="st3" width="16.87" height="33.6"/>
				</g>
				<g>
					<rect x="79.95" y="96.31" class="st3" width="16.87" height="33.6"/>
					<rect x="109.82" y="96.31" class="st3" width="16.87" height="33.6"/>
					<rect x="139.69" y="96.31" class="st3" width="16.87" height="33.6"/>
				</g>
				<g>
					<rect x="79.95" y="150.91" class="st3" width="16.87" height="33.6"/>
					<rect x="109.82" y="150.91" class="st3" width="16.87" height="33.6"/>
					<rect x="139.69" y="150.91" class="st3" width="16.87" height="33.6"/>
				</g>
				<g>
					<rect x="79.95" y="205.51" class="st3" width="16.87" height="33.6"/>
					<rect x="109.82" y="205.51" class="st3" width="16.87" height="33.6"/>
					<rect x="139.69" y="205.51" class="st3" width="16.87" height="33.6"/>
				</g>
				<g>
					<rect x="79.95" y="260.11" class="st3" width="16.87" height="33.6"/>
					<rect x="109.82" y="260.11" class="st3" width="16.87" height="33.6"/>
					<rect x="139.69" y="260.11" class="st3" width="16.87" height="33.6"/>
				</g>
				<g>
					<rect x="79.95" y="314.72" class="st3" width="16.87" height="33.6"/>
					<rect x="109.82" y="314.72" class="st3" width="16.87" height="33.6"/>
					<rect x="139.69" y="314.72" class="st3" width="16.87" height="33.6"/>
				</g>
				<g>
					<rect x="79.95" y="369.32" class="st3" width="16.87" height="33.6"/>
					<rect x="109.82" y="369.32" class="st3" width="16.87" height="33.6"/>
					<rect x="139.69" y="369.32" class="st3" width="16.87" height="33.6"/>
				</g>
				<g>
					<rect x="79.95" y="423.92" class="st3" width="16.87" height="33.6"/>
					<rect x="109.82" y="423.92" class="st3" width="16.87" height="33.6"/>
					<rect x="139.69" y="423.92" class="st3" width="16.87" height="33.6"/>
				</g>
				<g>
					<rect x="79.95" y="478.53" class="st3" width="16.87" height="33.6"/>
					<rect x="109.82" y="478.53" class="st3" width="16.87" height="33.6"/>
					<rect x="139.69" y="478.53" class="st3" width="16.87" height="33.6"/>
				</g>
				<g>
					<rect x="79.95" y="533.13" class="st3" width="16.87" height="33.6"/>
					<rect x="109.82" y="533.13" class="st3" width="16.87" height="33.6"/>
					<rect x="139.69" y="533.13" class="st3" width="16.87" height="33.6"/>
				</g>
				<g>
					<rect x="79.95" y="587.73" class="st3" width="16.87" height="98.27"/>
					<rect x="109.82" y="587.73" class="st3" width="16.87" height="98.27"/>
					<rect x="139.69" y="587.73" class="st3" width="16.87" height="98.27"/>
				</g>
			</g>
		</g>
	</g>
</g>
<g>
	<g>
		<rect x="-287.38" y="87.29" class="st0" width="157.87" height="598.71"/>
		<rect x="-264.93" y="47.58" class="st1" width="135.41" height="39.71"/>
		<g>
			<rect x="-270.07" y="108.01" class="st3" width="123.25" height="447.58"/>
			<g>
				<rect x="-270.07" y="150.73" class="st2" width="123.25" height="10.58"/>
				<rect x="-270.07" y="194.54" class="st2" width="123.25" height="10.58"/>
				<rect x="-270.07" y="238.34" class="st2" width="123.25" height="10.58"/>
				<rect x="-270.07" y="282.15" class="st2" width="123.25" height="10.58"/>
				<rect x="-270.07" y="325.96" class="st2" width="123.25" height="10.58"/>
				<rect x="-270.07" y="369.77" class="st2" width="123.25" height="10.58"/>
				<rect x="-270.07" y="413.58" class="st2" width="123.25" height="10.58"/>
				<rect x="-270.07" y="457.39" class="st2" width="123.25" height="10.58"/>
				<rect x="-270.07" y="501.2" class="st2" width="123.25" height="10.58"/>
				<rect x="-270.07" y="545.01" class="st2" width="123.25" height="10.58"/>
			</g>
		</g>
	</g>
	<g>
		<rect x="-129.51" y="87.29" class="st3" width="98.88" height="598.71"/>
		<rect x="-129.51" y="47.58" class="st4" width="84.04" height="39.71"/>
		<g>
			<rect x="-115.88" y="108.01" class="st1" width="76.03" height="447.58"/>
			<g>
				<rect x="-115.88" y="150.73" class="st2" width="76.03" height="10.58"/>
				<rect x="-115.88" y="194.54" class="st2" width="76.03" height="10.58"/>
				<rect x="-115.88" y="238.34" class="st2" width="76.03" height="10.58"/>
				<rect x="-115.88" y="282.15" class="st2" width="76.03" height="10.58"/>
				<rect x="-115.88" y="325.96" class="st2" width="76.03" height="10.58"/>
				<rect x="-115.88" y="369.77" class="st2" width="76.03" height="10.58"/>
				<rect x="-115.88" y="413.58" class="st2" width="76.03" height="10.58"/>
				<rect x="-115.88" y="457.39" class="st2" width="76.03" height="10.58"/>
				<rect x="-115.88" y="501.2" class="st2" width="76.03" height="10.58"/>
				<rect x="-115.88" y="545.01" class="st2" width="76.03" height="10.58"/>
			</g>
		</g>
	</g>
</g>
<g>
	<g>
		<rect x="271.62" y="-298.05" class="st5" width="129.99" height="957.28"/>
		<rect x="271.62" y="-244.43" class="st6" width="129.99" height="10.06"/>
		<g>
			<rect x="285.02" y="-204.79" class="st7" width="23.93" height="55.97"/>
			<rect x="285.02" y="-134.17" class="st7" width="23.93" height="55.97"/>
			<rect x="285.02" y="-63.55" class="st7" width="23.93" height="55.97"/>
			<rect x="285.02" y="7.03" class="st7" width="23.93" height="55.97"/>
			<rect x="285.02" y="77.65" class="st7" width="23.93" height="55.97"/>
			<rect x="285.02" y="148.27" class="st7" width="23.93" height="55.97"/>
			<rect x="285.02" y="218.85" class="st7" width="23.93" height="55.97"/>
			<rect x="285.02" y="289.47" class="st7" width="23.93" height="55.97"/>
			<rect x="285.02" y="360.09" class="st7" width="23.93" height="55.97"/>
			<rect x="285.02" y="430.67" class="st7" width="23.93" height="55.97"/>
			<rect x="285.02" y="501.3" class="st7" width="23.93" height="55.97"/>
			<rect x="285.02" y="571.92" class="st7" width="23.93" height="55.97"/>
			<rect x="285.02" y="-204.79" class="st8" width="23.93" height="55.97"/>
			<rect x="285.02" y="-134.17" class="st8" width="23.93" height="55.97"/>
			<rect x="285.02" y="-63.55" class="st8" width="23.93" height="55.97"/>
			<rect x="285.02" y="7.03" class="st8" width="23.93" height="55.97"/>
			<rect x="285.02" y="77.65" class="st8" width="23.93" height="55.97"/>
			<rect x="285.02" y="148.27" class="st8" width="23.93" height="55.97"/>
			<rect x="285.02" y="218.85" class="st8" width="23.93" height="55.97"/>
			<rect x="285.02" y="289.47" class="st8" width="23.93" height="55.97"/>
			<rect x="285.02" y="360.09" class="st8" width="23.93" height="55.97"/>
			<rect x="285.02" y="430.67" class="st8" width="23.93" height="55.97"/>
			<rect x="285.02" y="501.3" class="st8" width="23.93" height="55.97"/>
			<rect x="285.02" y="571.92" class="st8" width="23.93" height="55.97"/>
			<rect x="324.66" y="-204.79" class="st7" width="23.93" height="55.97"/>
			<rect x="324.66" y="-134.17" class="st7" width="23.93" height="55.97"/>
			<rect x="324.66" y="-63.55" class="st7" width="23.93" height="55.97"/>
			<rect x="324.66" y="7.03" class="st7" width="23.93" height="55.97"/>
			<rect x="324.66" y="77.65" class="st7" width="23.93" height="55.97"/>
			<rect x="324.66" y="148.27" class="st7" width="23.93" height="55.97"/>
			<rect x="324.66" y="218.85" class="st7" width="23.93" height="55.97"/>
			<rect x="324.66" y="289.47" class="st7" width="23.93" height="55.97"/>
			<rect x="324.66" y="360.09" class="st7" width="23.93" height="55.97"/>
			<rect x="324.66" y="430.67" class="st7" width="23.93" height="55.97"/>
			<rect x="324.66" y="501.3" class="st7" width="23.93" height="55.97"/>
			<rect x="324.66" y="571.92" class="st7" width="23.93" height="55.97"/>
			<rect x="324.66" y="-204.79" class="st8" width="23.93" height="55.97"/>
			<rect x="324.66" y="-134.17" class="st8" width="23.93" height="55.97"/>
			<rect x="324.66" y="-63.55" class="st8" width="23.93" height="55.97"/>
			<rect x="324.66" y="7.03" class="st8" width="23.93" height="55.97"/>
			<rect x="324.66" y="77.65" class="st8" width="23.93" height="55.97"/>
			<rect x="324.66" y="148.27" class="st8" width="23.93" height="55.97"/>
			<rect x="324.66" y="218.85" class="st8" width="23.93" height="55.97"/>
			<rect x="324.66" y="289.47" class="st8" width="23.93" height="55.97"/>
			<rect x="324.66" y="360.09" class="st8" width="23.93" height="55.97"/>
			<rect x="324.66" y="430.67" class="st8" width="23.93" height="55.97"/>
			<rect x="324.66" y="501.3" class="st8" width="23.93" height="55.97"/>
			<rect x="324.66" y="571.92" class="st8" width="23.93" height="55.97"/>
			<rect x="364.29" y="-204.79" class="st7" width="23.93" height="55.97"/>
			<rect x="364.29" y="-134.17" class="st7" width="23.93" height="55.97"/>
			<rect x="364.29" y="-63.55" class="st7" width="23.93" height="55.97"/>
			<rect x="364.29" y="7.03" class="st7" width="23.93" height="55.97"/>
			<rect x="364.29" y="77.65" class="st7" width="23.93" height="55.97"/>
			<rect x="364.29" y="148.27" class="st7" width="23.93" height="55.97"/>
			<rect x="364.29" y="218.85" class="st7" width="23.93" height="55.97"/>
			<rect x="364.29" y="289.47" class="st7" width="23.93" height="55.97"/>
			<rect x="364.29" y="360.09" class="st7" width="23.93" height="55.97"/>
			<rect x="364.29" y="430.67" class="st7" width="23.93" height="55.97"/>
			<rect x="364.29" y="501.3" class="st7" width="23.93" height="55.97"/>
			<rect x="364.29" y="571.92" class="st7" width="23.93" height="55.97"/>
			<rect x="364.29" y="-204.79" class="st8" width="23.93" height="55.97"/>
			<rect x="364.29" y="-134.17" class="st8" width="23.93" height="55.97"/>
			<rect x="364.29" y="-63.55" class="st8" width="23.93" height="55.97"/>
			<rect x="364.29" y="7.03" class="st8" width="23.93" height="55.97"/>
			<rect x="364.29" y="77.65" class="st8" width="23.93" height="55.97"/>
			<rect x="364.29" y="148.27" class="st8" width="23.93" height="55.97"/>
			<rect x="364.29" y="218.85" class="st8" width="23.93" height="55.97"/>
			<rect x="364.29" y="289.47" class="st8" width="23.93" height="55.97"/>
			<rect x="364.29" y="360.09" class="st8" width="23.93" height="55.97"/>
			<rect x="364.29" y="430.67" class="st8" width="23.93" height="55.97"/>
			<rect x="364.29" y="501.3" class="st8" width="23.93" height="55.97"/>
			<rect x="364.29" y="571.92" class="st8" width="23.93" height="55.97"/>
		</g>
	</g>
	<g>
		<rect x="49.4" y="-298.05" class="st9" width="222.22" height="957.28"/>
		<rect x="49.4" y="-244.43" class="st5" width="222.22" height="10.06"/>
		<rect x="128.61" y="-351.83" class="st5" width="143.01" height="53.78"/>
		
			<rect x="271.62" y="-351.83" transform="matrix(-1 -1.224647e-16 1.224647e-16 -1 610.4478 -649.8749)" class="st6" width="67.2" height="53.78"/>
		<g>
			<rect x="73.21" y="-204.79" class="st7" width="38.85" height="55.97"/>
			<rect x="73.21" y="-134.17" class="st7" width="38.85" height="55.97"/>
			<rect x="73.21" y="-63.55" class="st7" width="38.85" height="55.97"/>
			<rect x="73.21" y="7.03" class="st7" width="38.85" height="55.97"/>
			<rect x="73.21" y="77.65" class="st7" width="38.85" height="55.97"/>
			<rect x="73.21" y="148.27" class="st7" width="38.85" height="55.97"/>
			<rect x="73.21" y="218.85" class="st7" width="38.85" height="55.97"/>
			<rect x="73.21" y="289.47" class="st7" width="38.85" height="55.97"/>
			<rect x="73.21" y="360.09" class="st7" width="38.85" height="55.97"/>
			<rect x="73.21" y="430.67" class="st7" width="38.85" height="55.97"/>
			<rect x="73.21" y="501.3" class="st7" width="38.85" height="55.97"/>
			<rect x="73.21" y="571.92" class="st7" width="38.85" height="55.97"/>
			<rect x="73.21" y="-204.79" class="st8" width="38.85" height="55.97"/>
			<rect x="73.21" y="-134.17" class="st8" width="38.85" height="55.97"/>
			<rect x="73.21" y="-63.55" class="st8" width="38.85" height="55.97"/>
			<rect x="73.21" y="7.03" class="st8" width="38.85" height="55.97"/>
			<rect x="73.21" y="77.65" class="st8" width="38.85" height="55.97"/>
			<rect x="73.21" y="148.27" class="st8" width="38.85" height="55.97"/>
			<rect x="73.21" y="218.85" class="st8" width="38.85" height="55.97"/>
			<rect x="73.21" y="289.47" class="st8" width="38.85" height="55.97"/>
			<rect x="73.21" y="360.09" class="st8" width="38.85" height="55.97"/>
			<rect x="73.21" y="430.67" class="st8" width="38.85" height="55.97"/>
			<rect x="73.21" y="501.3" class="st8" width="38.85" height="55.97"/>
			<rect x="73.21" y="571.92" class="st8" width="38.85" height="55.97"/>
			<rect x="137.56" y="-204.79" class="st7" width="38.85" height="55.97"/>
			<rect x="137.56" y="-134.17" class="st7" width="38.85" height="55.97"/>
			<rect x="137.56" y="-63.55" class="st7" width="38.85" height="55.97"/>
			<rect x="137.56" y="7.03" class="st7" width="38.85" height="55.97"/>
			<rect x="137.56" y="77.65" class="st7" width="38.85" height="55.97"/>
			<rect x="137.56" y="148.27" class="st7" width="38.85" height="55.97"/>
			<rect x="137.56" y="218.85" class="st7" width="38.85" height="55.97"/>
			<rect x="137.56" y="289.47" class="st7" width="38.85" height="55.97"/>
			<rect x="137.56" y="360.09" class="st7" width="38.85" height="55.97"/>
			<rect x="137.56" y="430.67" class="st7" width="38.85" height="55.97"/>
			<rect x="137.56" y="501.3" class="st7" width="38.85" height="55.97"/>
			<rect x="137.56" y="571.92" class="st7" width="38.85" height="55.97"/>
			<rect x="137.56" y="-204.79" class="st8" width="38.85" height="55.97"/>
			<rect x="137.56" y="-134.17" class="st8" width="38.85" height="55.97"/>
			<rect x="137.56" y="-63.55" class="st8" width="38.85" height="55.97"/>
			<rect x="137.56" y="7.03" class="st8" width="38.85" height="55.97"/>
			<rect x="137.56" y="77.65" class="st8" width="38.85" height="55.97"/>
			<rect x="137.56" y="148.27" class="st8" width="38.85" height="55.97"/>
			<rect x="137.56" y="218.85" class="st8" width="38.85" height="55.97"/>
			<rect x="137.56" y="289.47" class="st8" width="38.85" height="55.97"/>
			<rect x="137.56" y="360.09" class="st8" width="38.85" height="55.97"/>
			<rect x="137.56" y="430.67" class="st8" width="38.85" height="55.97"/>
			<rect x="137.56" y="501.3" class="st8" width="38.85" height="55.97"/>
			<rect x="137.56" y="571.92" class="st8" width="38.85" height="55.97"/>
			<rect x="201.91" y="-204.79" class="st7" width="38.85" height="55.97"/>
			<rect x="201.91" y="-134.17" class="st7" width="38.85" height="55.97"/>
			<rect x="201.91" y="-63.55" class="st7" width="38.85" height="55.97"/>
			<rect x="201.91" y="7.03" class="st7" width="38.85" height="55.97"/>
			<rect x="201.91" y="77.65" class="st7" width="38.85" height="55.97"/>
			<rect x="201.91" y="148.27" class="st7" width="38.85" height="55.97"/>
			<rect x="201.91" y="218.85" class="st7" width="38.85" height="55.97"/>
			<rect x="201.91" y="289.47" class="st7" width="38.85" height="55.97"/>
			<rect x="201.91" y="360.09" class="st7" width="38.85" height="55.97"/>
			<rect x="201.91" y="430.67" class="st7" width="38.85" height="55.97"/>
			<rect x="201.91" y="501.3" class="st7" width="38.85" height="55.97"/>
			<rect x="201.91" y="571.92" class="st7" width="38.85" height="55.97"/>
			<rect x="201.91" y="-204.79" class="st8" width="38.85" height="55.97"/>
			<rect x="201.91" y="-134.17" class="st8" width="38.85" height="55.97"/>
			<rect x="201.91" y="-63.55" class="st8" width="38.85" height="55.97"/>
			<rect x="201.91" y="7.03" class="st8" width="38.85" height="55.97"/>
			<rect x="201.91" y="77.65" class="st8" width="38.85" height="55.97"/>
			<rect x="201.91" y="148.27" class="st8" width="38.85" height="55.97"/>
			<rect x="201.91" y="218.85" class="st8" width="38.85" height="55.97"/>
			<rect x="201.91" y="289.47" class="st8" width="38.85" height="55.97"/>
			<rect x="201.91" y="360.09" class="st8" width="38.85" height="55.97"/>
			<rect x="201.91" y="430.67" class="st8" width="38.85" height="55.97"/>
			<rect x="201.91" y="501.3" class="st8" width="38.85" height="55.97"/>
			<rect x="201.91" y="571.92" class="st8" width="38.85" height="55.97"/>
		</g>
	</g>
</g>
<path class="st7" d="M132.23-394.62c-1.71-1.29-3.53-2.41-5.41-3.46c-1.91-1-3.81-1.99-6.1-2.51c-0.59-0.11-1.2-0.23-2.01-0.11
	c-0.19,0.02-0.43,0.1-0.65,0.19c-0.18,0.08-0.29,0.14-0.43,0.22c-0.29,0.14-0.52,0.3-0.77,0.45c-0.97,0.61-1.84,1.28-2.69,1.95
	c-1.7,1.37-3.24,2.83-4.8,4.34l1.67-0.29c-2.05-0.95-4.09-1.77-6.25-2.44c-1.08-0.32-2.18-0.61-3.34-0.8
	c-0.59-0.09-1.18-0.17-1.82-0.17c-0.3-0.02-0.67,0.04-1.01,0.08c-0.34,0.05-0.71,0.19-1.05,0.3c-1.23,0.55-2.1,1.28-2.96,2.03
	c-0.85,0.76-1.62,1.57-2.36,2.39c-1.45,1.68-2.81,3.41-3.97,5.28c1.67-1.44,3.29-2.89,4.98-4.23c0.83-0.68,1.68-1.34,2.55-1.91
	c0.86-0.57,1.76-1.15,2.57-1.39c0.64-0.19,1.6-0.04,2.58,0.17c0.98,0.22,1.97,0.55,2.96,0.91c1.97,0.7,3.96,1.55,5.87,2.42
	l0.96,0.44l0.71-0.73c1.44-1.48,2.98-2.92,4.5-4.3c0.76-0.69,1.54-1.36,2.33-1.93c0.19-0.13,0.39-0.29,0.58-0.39l0.26-0.16
	c0.03,0,0.03-0.04,0.1-0.05c0.23-0.08,0.7-0.09,1.15-0.04c1.88,0.24,3.92,0.9,5.89,1.58C128.24-396.11,130.22-395.35,132.23-394.62z
	"/>
<path class="st7" d="M184.77-403.13c-1.79-2.66-3.82-5.14-5.96-7.54c-2.21-2.35-4.41-4.68-7.4-6.55c-0.78-0.45-1.58-0.91-2.79-1.14
	c-0.28-0.07-0.66-0.07-1.02-0.06c-0.29,0.02-0.48,0.06-0.72,0.09c-0.48,0.06-0.88,0.16-1.31,0.25c-1.68,0.39-3.23,0.9-4.77,1.44
	c-3.07,1.11-5.98,2.42-8.92,3.79l2.5,0.4c-2.43-2.35-4.92-4.51-7.65-6.51c-1.38-0.98-2.78-1.93-4.34-2.77
	c-0.78-0.41-1.59-0.81-2.5-1.13c-0.42-0.18-0.97-0.27-1.46-0.39c-0.51-0.09-1.09-0.08-1.63-0.09c-2.01,0.17-3.6,0.78-5.19,1.42
	c-1.57,0.66-3.05,1.43-4.51,2.22c-2.88,1.66-5.64,3.45-8.21,5.53c3.06-1.22,6.07-2.48,9.12-3.54c1.51-0.55,3.03-1.07,4.55-1.46
	c1.49-0.38,3.05-0.77,4.33-0.71c1,0.05,2.29,0.73,3.56,1.51c1.27,0.79,2.52,1.75,3.74,2.74c2.45,1.96,4.85,4.14,7.12,6.31l1.14,1.09
	l1.36-0.68c2.76-1.39,5.65-2.67,8.48-3.88c1.42-0.6,2.85-1.17,4.24-1.59c0.34-0.09,0.7-0.21,1.01-0.26l0.45-0.1
	c0.04,0.01,0.06-0.04,0.17-0.02c0.37,0,1.03,0.22,1.65,0.51c2.54,1.26,5.11,3.2,7.56,5.12
	C179.86-407.19,182.28-405.14,184.77-403.13z"/>
<g>
	<path class="st10" d="M-126.45,659.23c0,0-3.1-14.46-9.29-16.69c-6.19-2.23-9.96,4.26-9.96,4.26s-1.46-13.82-10.23-17.95
		c-8.78-4.14-15.36,4.33-15.36,4.33s-6.73-17.53-18.77-17.53c-12.03,0-18.1,25.65-18.1,25.65s-7.1-7.65-14.38-3.33
		c-7.28,4.32-7.28,21.26-7.28,21.26H-126.45z"/>
	<path class="st6" d="M900.38,659.23c0,0-3.1-14.46-9.29-16.69c-6.19-2.23-9.96,4.26-9.96,4.26s-1.46-13.82-10.24-17.95
		c-8.78-4.14-15.36,4.33-15.36,4.33s-6.74-17.53-18.77-17.53c-12.03,0-18.1,25.65-18.1,25.65s-7.1-7.65-14.38-3.33
		C797,642.3,797,659.23,797,659.23H900.38z"/>
	<path class="st6" d="M147.08,659.23H38.28c0,0,3.58-15.34,10.8-16.43c7.21-1.09,10.57,6.03,10.57,6.03s-0.33-21.39,13.15-25.04
		c13.48-3.64,24.78,15.26,24.78,15.26s8.45-10.78,19.96-10.09c11.51,0.69,14.44,18.5,14.44,18.5S142.45,641.28,147.08,659.23z"/>
	<path class="st11" d="M-223.14,659.23h-57.28c0,0,0.13-8.53,5.76-10.79c5.63-2.26,8.98,2.15,8.98,2.15s2.3-15.67,12.79-15.67
		c10.49,0,15.52,13.52,15.52,13.52s2.35-4.09,8.18-3.33C-223.37,645.88-223.14,659.23-223.14,659.23z"/>
	<path class="st5" d="M192.03,659.23h-57.28c0,0,0.13-8.53,5.76-10.79c5.63-2.26,8.98,2.15,8.98,2.15s2.3-15.67,12.79-15.67
		c10.49,0,15.52,13.52,15.52,13.52s2.35-4.09,8.18-3.33C191.8,645.88,192.03,659.23,192.03,659.23z"/>
	<path class="st5" d="M1133.98,659.23h-57.28c0,0,0.13-8.53,5.76-10.79c5.63-2.26,8.98,2.15,8.98,2.15s2.3-15.67,12.79-15.67
		c10.49,0,15.52,13.52,15.52,13.52s2.35-4.09,8.18-3.33C1133.75,645.88,1133.98,659.23,1133.98,659.23z"/>
	<path class="st6" d="M1217.54,659.23h-94.42c0,0,0.22-14.05,9.5-17.78c9.28-3.73,14.8,3.55,14.8,3.55s3.79-25.84,21.08-25.84
		c17.3,0,25.58,22.29,25.58,22.29s3.87-6.74,13.48-5.48C1217.16,637.22,1217.54,659.23,1217.54,659.23z"/>
</g>
<g>
	<g>
		<rect x="-169.73" y="659.23" class="st1" width="1536.58" height="26.77"/>
		<g>
			<path class="st7" d="M-62,659.23c1.44,4.46,1.76,8.92,1.83,13.38c-0.05,4.46-0.38,8.92-1.83,13.38
				c-1.45-4.46-1.77-8.92-1.83-13.38C-63.77,668.15-63.44,663.69-62,659.23z"/>
			<path class="st7" d="M58.1,659.23c1.44,4.46,1.76,8.92,1.83,13.38c-0.05,4.46-0.38,8.92-1.83,13.38
				c-1.45-4.46-1.77-8.92-1.83-13.38C56.34,668.15,56.66,663.69,58.1,659.23z"/>
			<path class="st7" d="M178.2,659.23c1.44,4.46,1.76,8.92,1.83,13.38c-0.05,4.46-0.38,8.92-1.83,13.38
				c-1.45-4.46-1.77-8.92-1.83-13.38C176.44,668.15,176.76,663.69,178.2,659.23z"/>
			<path class="st7" d="M298.31,659.23c1.44,4.46,1.77,8.92,1.83,13.38c-0.05,4.46-0.38,8.92-1.83,13.38
				c-1.45-4.46-1.77-8.92-1.83-13.38C296.54,668.15,296.87,663.69,298.31,659.23z"/>
			<path class="st7" d="M418.41,659.23c1.44,4.46,1.76,8.92,1.83,13.38c-0.05,4.46-0.38,8.92-1.83,13.38
				c-1.45-4.46-1.77-8.92-1.83-13.38C416.64,668.15,416.97,663.69,418.41,659.23z"/>
			<path class="st7" d="M538.51,659.23c1.44,4.46,1.76,8.92,1.83,13.38c-0.05,4.46-0.38,8.92-1.83,13.38
				c-1.45-4.46-1.77-8.92-1.83-13.38C536.75,668.15,537.07,663.69,538.51,659.23z"/>
			<path class="st7" d="M658.61,659.23c1.44,4.46,1.76,8.92,1.83,13.38c-0.05,4.46-0.38,8.92-1.83,13.38
				c-1.45-4.46-1.77-8.92-1.83-13.38C656.85,668.15,657.17,663.69,658.61,659.23z"/>
			<path class="st7" d="M778.72,659.23c1.44,4.46,1.76,8.92,1.83,13.38c-0.05,4.46-0.38,8.92-1.83,13.38
				c-1.45-4.46-1.77-8.92-1.83-13.38C776.95,668.15,777.28,663.69,778.72,659.23z"/>
			<path class="st7" d="M898.82,659.23c1.44,4.46,1.76,8.92,1.83,13.38c-0.05,4.46-0.38,8.92-1.83,13.38
				c-1.45-4.46-1.77-8.92-1.83-13.38C897.05,668.15,897.38,663.69,898.82,659.23z"/>
			<path class="st7" d="M1018.92,659.23c1.44,4.46,1.77,8.92,1.83,13.38c-0.05,4.46-0.38,8.92-1.83,13.38
				c-1.45-4.46-1.77-8.92-1.83-13.38C1017.16,668.15,1017.48,663.69,1018.92,659.23z"/>
			<path class="st7" d="M1139.02,659.23c1.44,4.46,1.77,8.92,1.83,13.38c-0.05,4.46-0.38,8.92-1.83,13.38
				c-1.45-4.46-1.77-8.92-1.83-13.38C1137.26,668.15,1137.58,663.69,1139.02,659.23z"/>
			<path class="st7" d="M1259.13,659.23c1.44,4.46,1.76,8.92,1.83,13.38c-0.05,4.46-0.38,8.92-1.83,13.38
				c-1.45-4.46-1.77-8.92-1.83-13.38C1257.36,668.15,1257.69,663.69,1259.13,659.23z"/>
		</g>
	</g>
</g>
<g>
	<path class="st7" d="M-288.35,686c429.48-0.43,1089.32-0.62,1513.82,0C802.78,686.62,139.12,686.43-288.35,686L-288.35,686z"/>
</g>
<g>
	
		<ellipse transform="matrix(0.7071 -0.7071 0.7071 0.7071 433.9118 45.2885)" class="st12" cx="271.62" cy="-501.13" rx="115.51" ry="115.51"/>
	<circle class="st13" cx="271.62" cy="-501.13" r="72.66"/>
</g>
</svg>
