<?xml version="1.0" encoding="utf-8"?>
<!-- Generator: Adobe Illustrator 27.0.0, SVG Export Plug-In . SVG Version: 6.00 Build 0)  -->
<svg version="1.1" id="Capa_1" xmlns="http://www.w3.org/2000/svg" xmlns:xlink="http://www.w3.org/1999/xlink" x="0px" y="0px"
	 viewBox="0 0 512 512" style="enable-background:new 0 0 512 512;" xml:space="preserve">
<style type="text/css">
	.st0{fill:#9EB23B;}
	.st1{fill:#C7D36F;}
	.st2{fill:#E0DECA;}
</style>
<g transform="translate(0.000000,512.000000) scale(0.100000,-0.100000)">
	<path class="st0" d="M62,5105c-67-29-62,169-62-2545C0-162-5,44,64,15c53-22,943-22,986,0c48,25,60,52,60,132v73h1450h1450v-73
		c0-80,12-107,60-132c43-22,933-22,986,0c69,29,64-177,64,2545s5,2516-64,2545C5003,5127,112,5127,62,5105z M4900,2560V220h-335
		h-335v1846c0,2021,4,1893-57,1925c-39,21-3187,21-3226,0c-61-32-57,96-57-1925V220H555H220v2340v2340h2340h2340V2560z M2450,2115
		V450h-670h-670v1665v1665h670h670V2115z M4010,2115V450h-670h-670v1665v1665h670h670V2115z"/>
	<path class="st1" d="M1708,4533c-106-106-139-144-144-170c-16-86,74-160,149-122c12,6,57,45,99,87l77,76l85-82
		c95-91,130-105,189-77c41,19,61,53,60,100c-1,45-20,69-161,208c-119,116-121,117-168,117h-47L1708,4533z"/>
	<path class="st2" d="M2937,4647c-33-26-47-71-36-112c11-39,263-291,302-300c15-4,39-4,54,0c31,7,266,233,289,277
		c24,46,18,86-20,124c-64,64-124,45-245-80l-55-55l-87,84c-83,80-91,85-131,85C2978,4670,2956,4663,2937,4647z"/>
	<path class="st0" d="M4501,2874c-53-38-61-122-14-168c31-31,67-40,109-26c115,38,91,210-30,210C4543,2890,4514,2883,4501,2874z"/>
	<path class="st0" d="M4516,2435c-55-29-75-83-52-139c19-45,52-66,102-66c116,0,146,161,38,206C4562,2454,4552,2453,4516,2435z"/>
</g>
</svg>
