<?xml version="1.0" encoding="utf-8"?>
<!-- Generator: Adobe Illustrator 27.0.0, SVG Export Plug-In . SVG Version: 6.00 Build 0)  -->
<svg version="1.1" id="Capa_1" xmlns="http://www.w3.org/2000/svg" xmlns:xlink="http://www.w3.org/1999/xlink" x="0px" y="0px"
	 viewBox="0 0 30 30" style="enable-background:new 0 0 30 30;" xml:space="preserve">
<style type="text/css">
	.st0{fill:#F9F9F9;}
</style>
<g>
	<g>
		<path class="st0" d="M14.6,13.2c-0.6,0-1.2,0-1.8,0c0,0.3,0,0.6,0,0.8c0,0,0.1,0.1,0.1,0.1c0.5,0,1,0,1.4,0c0.1,0,0.1,0,0.2,0
			c0,3.8,0,7.6,0,11.5c-0.1,0-0.1,0-0.2,0c-0.8,0-1.5,0-2.2,0c-0.2,0-0.2,0-0.2-0.2c0-3.4,0-6.8,0-10.2c0-0.2,0-0.2-0.2-0.2
			c-0.8,0-1.5,0-2.3,0c-0.1,0-0.2,0-0.2,0.2c0,0.2,0,0.4,0,0.6c0,0.1,0,0.1,0.1,0.1c0.5,0,1,0,1.5,0c0,0,0.1,0,0.1,0
			c0,0.3,0,0.6,0,0.9c-0.1,0-0.1,0-0.2,0c-0.5,0-1,0-1.4,0c-0.1,0-0.1,0-0.1,0.1c0,0.2,0,0.4,0,0.6c0,0.1,0,0.1,0.1,0.1
			c0.5,0,1,0,1.5,0c0.1,0,0.2,0,0.1,0.1c0,0.2,0,0.4,0,0.6c0,0.1,0,0.1-0.1,0.1c-0.5,0-1,0-1.4,0c-0.1,0-0.2,0-0.2,0.2
			c0,0.2,0,0.4,0,0.6c0,0.1,0,0.1,0.1,0.1c0.5,0,1,0,1.5,0c0.1,0,0.2,0,0.2,0.1c0,2,0,3.9,0,5.9c0,0.1,0,0.1-0.1,0.1
			c-0.8,0-1.6,0-2.4,0c0,0-0.1,0-0.1,0c0-1.8,0-3.5,0-5.3c-0.1,0-0.1,0-0.2,0c-0.8,0-1.6,0-2.3,0c-0.1,0-0.2,0-0.2,0.2
			c0,0.2,0,0.4,0,0.6c0,0.1,0,0.1,0.1,0.1c0.5,0,1,0,1.5,0c0,0,0.1,0,0.1,0c0,0.3,0,0.6,0,0.9c-0.2,0-0.4,0-0.6,0
			c-0.3,0-0.7,0-1.1,0c-0.1,0-0.1,0-0.1,0.1c0,0.2,0,0.4,0,0.6c0,0.1,0,0.1,0.2,0.1c0.5,0,1,0,1.5,0c0.1,0,0.2,0,0.2,0.2
			c0,0.2,0,0.5,0,0.7c-0.2,0-0.5,0-0.7,0c-0.3,0-0.6,0-0.9,0c-0.1,0-0.2,0-0.2,0.2c0,0.2,0,0.4,0,0.5c0,0.1,0,0.2,0.2,0.2
			c0.5,0,0.9,0,1.4,0c0.2,0,0.2,0,0.2,0.2c0,0.2,0,0.5,0,0.7c-0.1,0-0.1,0-0.2,0c-1.7,0-3.3,0-4.9,0c-0.1,0-0.2,0-0.2-0.2
			c0-0.2,0-0.5,0-0.7c0.1,0,0.1,0,0.2,0c0.7,0,1.5,0,2.2,0c0.2,0,0.2,0,0.2-0.2c0-1.6,0-3.2,0-4.9c0-0.2,0-0.2,0.2-0.2
			c1,0,2.1,0,3.1,0c0.2,0,0.2,0,0.2-0.2c0-1.6,0-3.2,0-4.9c0-0.2,0-0.2,0.2-0.2c1,0,2.1,0,3.1,0c0.2,0,0.2,0,0.2-0.2
			c0-1.6,0-3.3,0-4.9c0-0.2,0-0.2,0.2-0.2c0.8,0,1.5,0,2.2,0c0.1,0,0.1,0,0.2,0c0-0.1,0-0.1,0-0.2c0-1.3,0-2.7,0-4
			c0-0.2,0-0.2,0.2-0.2c0.2,0,0.4,0,0.7,0c0,1.5,0,2.9,0,4.4c0.1,0,0.1,0,0.2,0c0.8,0,1.5,0,2.3,0c0.1,0,0.2,0,0.2,0.2
			c0,1.6,0,3.3,0,4.9c0,0.2,0,0.2,0.2,0.2c1,0,2.1,0,3.1,0c0.1,0,0.2,0,0.2,0.2c0,1.6,0,3.3,0,4.9c0,0.1,0,0.1,0,0.2
			c1.2,0,2.3,0,3.5,0c0,0.1,0,0.1,0,0.2c0,1.6,0,3.3,0,4.9c0,0.2,0,0.2,0.2,0.2c0.8,0,1.5,0,2.2,0c0.1,0,0.1,0,0.2,0
			c0,0.3,0,0.6,0,0.9c-1.8,0-3.5,0-5.3,0c0-0.3,0-0.5,0-0.8c0,0,0.1-0.1,0.1-0.1c0.5,0,1,0,1.4,0c0.2,0,0.2,0,0.2-0.2
			c0-0.2,0-0.4,0-0.7c-0.6,0-1.2,0-1.8,0c0-0.3,0-0.6,0-0.9c0.6,0,1.2,0,1.8,0c0-0.3,0-0.6,0-0.9c-0.6,0-1.2,0-1.8,0
			c0-0.3,0-0.5,0-0.8c0,0,0.1-0.1,0.1-0.1c0.5,0,1,0,1.4,0c0.1,0,0.2,0,0.2-0.2c0-0.2,0-0.5,0-0.7c-0.9,0-1.8,0-2.6,0
			c0,1.8,0,3.5,0,5.3c-0.1,0-0.1,0-0.2,0c-0.8,0-1.5,0-2.3,0c-0.1,0-0.2,0-0.2-0.2c0-2,0-3.9,0-5.9c0-0.1,0-0.2,0.2-0.2
			c0.5,0,1,0,1.4,0c0,0,0.1,0,0.2,0c0-0.3,0-0.6,0-0.9c-0.6,0-1.1,0-1.8,0c0-0.3,0-0.5,0-0.8c0,0,0.1-0.1,0.1-0.1c0.5,0,1,0,1.4,0
			c0,0,0.1,0,0.2,0c0-0.3,0-0.6,0-0.9c-0.6,0-1.1,0-1.7,0c0-0.3,0-0.6,0-0.9c0.6,0,1.2,0,1.8,0c0-0.3,0-0.6,0-0.8
			c0,0-0.1-0.1-0.1-0.1c-0.8,0-1.6,0-2.5,0c-0.1,0-0.1,0-0.1,0.1c0,0,0,0.1,0,0.1c0,3.4,0,6.8,0,10.1c0,0.1,0,0.1,0,0.2
			c-0.1,0-0.1,0-0.2,0c-0.8,0-1.5,0-2.3,0c-0.1,0-0.2,0-0.2-0.2c0-3.7,0-7.4,0-11.1c0-0.1,0-0.2,0.2-0.2c0.5,0,1,0,1.5,0
			c0.1,0,0.2,0,0.1-0.1c0-0.2,0-0.4,0-0.6c0-0.1,0-0.1-0.1-0.1c-0.5,0-1,0-1.4,0c-0.1,0-0.1,0-0.2,0c0-0.3,0-0.5,0-0.8
			c0,0,0.1-0.1,0.1-0.1c0.5,0,1,0,1.4,0c0.1,0,0.2,0,0.2-0.2c0-0.2,0-0.5,0-0.7c-0.1,0-0.1,0-0.2,0c-0.5,0-0.9,0-1.4,0
			c-0.1,0-0.2-0.1-0.2-0.2c0-0.2,0-0.4,0-0.7c0.6,0,1.2,0,1.8,0c0-0.3,0-0.6,0-0.9c-1.5,0-2.9,0-4.4,0c0,0.3,0,0.5,0,0.8
			c0,0,0.1,0.1,0.1,0.1c0.5,0,1,0,1.4,0c0.1,0,0.1,0,0.2,0c0,0.3,0,0.5,0,0.8c0,0-0.1,0.1-0.1,0.1c-0.5,0-0.9,0-1.4,0
			c-0.2,0-0.2,0-0.2,0.2c0,0.2,0,0.4,0,0.6c0,0.1,0,0.1,0.1,0.1c0.5,0,1,0,1.4,0c0.1,0,0.2,0,0.2,0.2C14.5,12.8,14.6,13,14.6,13.2z
			 M12.8,15c0,0.1,0,0.1,0,0.2c0,3.1,0,6.2,0,9.3c0,0,0,0.1,0,0.1c0,0.1,0,0.1,0.1,0.1c0.2,0,0.4,0,0.6,0c0.1,0,0.2,0,0.2-0.2
			c0-3.1,0-6.2,0-9.4c0-0.1,0-0.1,0-0.2C13.4,15,13.1,15,12.8,15z M16.3,24.7c0.2,0,0.5,0,0.7,0c0.1,0,0.2,0,0.2-0.2
			c0-3.1,0-6.2,0-9.4c0-0.1,0-0.1,0-0.2c-0.3,0-0.6,0-0.9,0C16.3,18.2,16.3,21.5,16.3,24.7z M10.1,24.7c0-1.5,0-3,0-4.4
			c-0.2,0-0.5,0-0.7,0c-0.1,0-0.2,0-0.2,0.2c0,1.4,0,2.7,0,4.1c0,0,0,0.1,0,0.1c0,0,0.1,0.1,0.1,0.1C9.6,24.7,9.9,24.7,10.1,24.7z
			 M19.9,20.3c0,1.5,0,2.9,0,4.4c0.2,0,0.5,0,0.7,0c0.1,0,0.2,0,0.2-0.2c0-1.4,0-2.7,0-4.1c0,0,0-0.1,0-0.2
			C20.4,20.3,20.1,20.3,19.9,20.3z"/>
	</g>
</g>
</svg>
